<?xml version="1.0" encoding="utf-8"?>
<!-- Generator: Adobe Illustrator 19.1.0, SVG Export Plug-In . SVG Version: 6.00 Build 0)  -->
<svg version="1.0" id="Livello_1" xmlns="http://www.w3.org/2000/svg" xmlns:xlink="http://www.w3.org/1999/xlink" x="0px" y="0px"
	 width="136px" height="66px" viewBox="0 0 136 66" enable-background="new 0 0 136 66" xml:space="preserve">
<polygon fill="#8C7965" points="107,65 104.583,65 104.583,64 106,64 106,34 107,34 "/>
<path fill="#E75300" d="M90.23,38.883c-1.777,0-3.224-1.454-3.233-3.243l0,0c0-0.006,0-0.01,0-0.016l0,0
	c0.113-2.774,1.119-5.297,2.737-7.3c-2.133-2.367-5.228-3.845-8.672-3.845v-0.76c3.633,0,6.901,1.544,9.171,4.024
	c2.27-2.48,5.538-4.024,9.171-4.024v0.76c-3.443,0-6.538,1.478-8.671,3.846c1.617,2.002,2.623,4.526,2.735,7.3
	C93.469,37.427,92.016,38.883,90.23,38.883z M87.758,35.645c0.012,1.368,1.117,2.477,2.472,2.477c1.367,0,2.478-1.114,2.478-2.483
	c-0.102-2.544-1.011-4.865-2.474-6.724C88.771,30.775,87.863,33.097,87.758,35.645z"/>
<g>
	<path fill="#8C7965" d="M76.37,58.071H60.871c-1.755,0-3.184-1.427-3.184-3.182V9.862c0-1.755,1.429-3.184,3.184-3.184H76.37
		c1.755,0,3.184,1.429,3.184,3.184v45.027C79.553,56.644,78.125,58.071,76.37,58.071z M60.871,7.439
		c-1.336,0-2.423,1.087-2.423,2.423v45.027c0,1.335,1.087,2.422,2.423,2.422H76.37c1.336,0,2.423-1.087,2.423-2.422V9.862
		c0-1.336-1.087-2.423-2.423-2.423H60.871z"/>
	<g>
		<g>
			<g>
				<g>
					<polygon fill="#8C7965" points="57.833,54.331 55.479,54.331 55.479,50.03 57.833,50.03 57.833,50.79 56.24,50.79 56.24,53.57 
						57.833,53.57 					"/>
				</g>
				<g>
					<polygon fill="#8C7965" points="57.833,48.725 55.479,48.725 55.479,44.423 57.833,44.423 57.833,45.183 56.24,45.183 
						56.24,47.965 57.833,47.965 					"/>
				</g>
				<g>
					<polygon fill="#8C7965" points="57.833,43.118 55.479,43.118 55.479,38.816 57.833,38.816 57.833,39.576 56.24,39.576 
						56.24,42.357 57.833,42.357 					"/>
				</g>
				<g>
					<polygon fill="#8C7965" points="57.833,37.512 55.479,37.512 55.479,33.21 57.833,33.21 57.833,33.97 56.24,33.97 
						56.24,36.752 57.833,36.752 					"/>
				</g>
				<g>
					<polygon fill="#8C7965" points="57.833,31.903 55.479,31.903 55.479,27.601 57.833,27.601 57.833,28.362 56.24,28.362 
						56.24,31.143 57.833,31.143 					"/>
				</g>
				<g>
					<polygon fill="#8C7965" points="57.833,26.298 55.479,26.298 55.479,21.997 57.833,21.997 57.833,22.758 56.24,22.758 
						56.24,25.537 57.833,25.537 					"/>
				</g>
				<g>
					<polygon fill="#8C7965" points="57.833,20.69 55.479,20.69 55.479,16.389 57.833,16.389 57.833,17.149 56.24,17.149 
						56.24,19.93 57.833,19.93 					"/>
				</g>
				<g>
					<polygon fill="#8C7965" points="57.833,15.085 55.479,15.085 55.479,10.783 57.833,10.783 57.833,11.543 56.24,11.543 
						56.24,14.324 57.833,14.324 					"/>
				</g>
			</g>
		</g>
		<g>
			<g>
				<g>
					<polygon fill="#8C7965" points="81.76,54.331 79.305,54.331 79.305,53.57 81,53.57 81,50.79 79.305,50.79 79.305,50.03 
						81.76,50.03 					"/>
				</g>
				<g>
					<polygon fill="#8C7965" points="81.76,48.725 79.305,48.725 79.305,47.965 81,47.965 81,45.183 79.305,45.183 79.305,44.423 
						81.76,44.423 					"/>
				</g>
				<g>
					<polygon fill="#8C7965" points="81.76,43.118 79.305,43.118 79.305,42.357 81,42.357 81,39.576 79.305,39.576 79.305,38.816 
						81.76,38.816 					"/>
				</g>
				<g>
					<polygon fill="#8C7965" points="81.76,37.512 79.305,37.512 79.305,36.752 81,36.752 81,33.97 79.305,33.97 79.305,33.21 
						81.76,33.21 					"/>
				</g>
				<g>
					<polygon fill="#8C7965" points="81.76,31.903 79.305,31.903 79.305,31.143 81,31.143 81,28.362 79.305,28.362 79.305,27.601 
						81.76,27.601 					"/>
				</g>
				<g>
					<polygon fill="#8C7965" points="81.76,26.298 79.305,26.298 79.305,25.537 81,25.537 81,22.758 79.305,22.758 79.305,21.997 
						81.76,21.997 					"/>
				</g>
				<g>
					<polygon fill="#8C7965" points="81.76,20.69 79.305,20.69 79.305,19.93 81,19.93 81,17.149 79.305,17.149 79.305,16.389 
						81.76,16.389 					"/>
				</g>
				<g>
					<polygon fill="#8C7965" points="81.76,15.085 79.305,15.085 79.305,14.324 81,14.324 81,11.543 79.305,11.543 79.305,10.783 
						81.76,10.783 					"/>
				</g>
			</g>
		</g>
	</g>
</g>
<path fill="#8C7965" d="M55.653,24.617c-3.632,0-6.898-1.543-9.168-4.023c-2.27,2.48-5.537,4.023-9.168,4.023
	c-0.001,0-0.001,0-0.003,0v-0.76c0.001,0,0.002,0,0.003,0c3.443,0,6.535-1.476,8.668-3.845c-1.618-2.003-2.623-4.528-2.736-7.302
	c0-1.803,1.453-3.257,3.239-3.257c1.776,0,3.222,1.452,3.232,3.242l0,0c0,0.006,0,0.012,0,0.018h-0.001
	c-0.112,2.774-1.118,5.297-2.735,7.3c2.133,2.366,5.226,3.843,8.669,3.843c0.001,0,0.001,0,0.003,0v0.76
	C55.655,24.617,55.654,24.617,55.653,24.617z M46.488,10.214c-1.367,0-2.478,1.114-2.478,2.481c0.103,2.544,1.011,4.865,2.474,6.724
	c1.463-1.859,2.371-4.182,2.476-6.73C48.947,11.323,47.843,10.214,46.488,10.214z"/>
<path fill="#8C7965" d="M13.403,24.534C6.717,24.534,1.27,19.303,1,12.626l0.76-0.03c0.252,6.268,5.367,11.177,11.643,11.177
	c0.001,0,0.001,0,0.003,0v0.76C13.405,24.534,13.404,24.534,13.403,24.534z"/>
<path fill="#8C7965" d="M122.519,24.534c6.686,0,12.133-5.23,12.403-11.908l-0.76-0.03c-0.252,6.268-5.367,11.177-11.643,11.177
	c-0.001,0-0.001,0-0.003,0v0.76C122.517,24.534,122.518,24.534,122.519,24.534z"/>
<polygon fill="#8C7965" points="116,65 113.583,65 113.583,64 115,64 115,34 116,34 "/>
<path fill="#007481" d="M118.333,34.754h-6.114v-2.346c-0.961,0.113-1.754,0.113-2.717,0v2.346h-6.114v-3.848
	c-3.099-2.345-4.943-6.03-4.943-9.902c0-6.844,5.57-12.413,12.416-12.413c6.846,0,12.415,5.569,12.415,12.413
	c0,3.87-1.844,7.557-4.943,9.903V34.754z M112.98,33.994h4.593v-3.47l0.155-0.114c2.998-2.195,4.788-5.711,4.788-9.404
	c0-6.425-5.229-11.652-11.655-11.652c-6.427,0-11.656,5.227-11.656,11.652c0,3.693,1.79,7.209,4.787,9.403l0.156,0.114v3.472h4.594
	v-2.462l0.436,0.065c1.228,0.181,2.142,0.181,3.366,0l0.436-0.065V33.994z"/>
<polygon fill="#8C7965" points="33,65 30.583,65 30.583,64 32,64 32,30.319 33,30.319 "/>
<polygon fill="#8C7965" points="19,65 16.583,65 16.583,64 18,64 18,30.319 19,30.319 "/>
<path fill="#E75300" d="M34.726,31.079H16.26c-1.755,0-3.183-1.429-3.183-3.184V4.386c0-1.757,1.428-3.185,3.183-3.185h18.465
	c1.755,0,3.183,1.429,3.183,3.185v23.51C37.909,29.651,36.481,31.079,34.726,31.079z M16.26,1.961c-1.336,0-2.423,1.088-2.423,2.425
	v23.51c0,1.336,1.087,2.423,2.423,2.423h18.465c1.336,0,2.423-1.087,2.423-2.423V4.386c0-1.336-1.087-2.425-2.423-2.425H16.26z"/>
<rect x="13.457" y="5.208" fill="#E75300" width="24.071" height="0.76"/>
<g>
	<g id="INSERT_36_">
		<g id="CIRCLE_276_">
			<path fill="#E75300" d="M111.358,23.693c0.278-0.273,0.275-0.719,0-0.996c-0.274-0.273-0.719-0.273-0.996,0
				c-0.275,0.278-0.275,0.723,0,0.996C110.638,23.971,111.084,23.971,111.358,23.693L111.358,23.693L111.358,23.693z"/>
		</g>
	</g>
	<polygon fill="#007481" points="102.335,22.744 103.289,22.744 103.289,21.788 104.198,21.788 104.198,22.744 105.154,22.744 
		105.154,23.65 104.198,23.65 104.198,24.608 103.289,24.608 103.289,23.65 102.335,23.65 	"/>
	<polygon fill="#007481" points="116.567,22.744 117.521,22.744 117.521,21.788 118.429,21.788 118.429,22.744 119.386,22.744 
		119.386,23.65 118.429,23.65 118.429,24.608 117.521,24.608 117.521,23.65 116.567,23.65 	"/>
</g>
<g>
	<path fill="#8C7965" d="M62.453,22.199c-0.549-0.55-1.438-0.55-1.993,0c-0.549,0.552-0.549,1.445,0,1.993
		c0.551,0.552,1.444,0.552,1.993,0C63.006,23.639,63.002,22.752,62.453,22.199z M61.457,23.904l-0.705-0.707l0.705-0.704
		l0.706,0.704L61.457,23.904z"/>
</g>
<g>
	<path fill="#8C7965" d="M76.778,22.199c-0.549-0.55-1.439-0.55-1.994,0c-0.549,0.552-0.549,1.445,0,1.993
		c0.552,0.552,1.444,0.552,1.994,0C77.332,23.639,77.327,22.752,76.778,22.199z M75.782,23.904l-0.705-0.707l0.705-0.704
		l0.705,0.704L75.782,23.904z"/>
</g>
<polyline fill="#007481" points="68.619,23.904 67.915,23.197 68.619,22.493 69.325,23.197 "/>
<g>
	<rect x="16.967" y="22.746" fill="#E75300" width="2.819" height="0.906"/>
	<rect x="31.199" y="22.746" fill="#E75300" width="2.819" height="0.906"/>
	<g id="INSERT_35_">
		<g id="CIRCLE_275_">
			<path fill="#007481" d="M24.083,23.2c-0.004,0.777,0.627,1.405,1.406,1.408c0.782-0.002,1.41-0.633,1.41-1.409"/>
		</g>
	</g>
</g>
</svg>
