<?xml version="1.0" encoding="utf-8"?>
<!-- Generator: Adobe Illustrator 19.2.1, SVG Export Plug-In . SVG Version: 6.00 Build 0)  -->
<svg version="1.1" id="Livello_1" xmlns="http://www.w3.org/2000/svg" xmlns:xlink="http://www.w3.org/1999/xlink" x="0px" y="0px"
	 width="28px" height="28px" viewBox="0 0 28 28" style="enable-background:new 0 0 28 28;" xml:space="preserve">
<style type="text/css">
	.st0{fill:#FFFFFF;}
</style>
<g id="grid">
</g>
<g id="Livello_1_1_">
	<path class="st0" d="M8.7,21h10.7c0.9,0,1.7-0.7,1.7-1.7V8.7C21,7.7,20.3,7,19.3,7H8.7C7.7,7,7,7.7,7,8.7v10.7
		C7,20.3,7.7,21,8.7,21z M16.7,9c0-0.2,0.2-0.4,0.4-0.4H19c0.2,0,0.4,0.2,0.4,0.4v1.9c0,0.2-0.2,0.4-0.4,0.4h-1.9
		c-0.2,0-0.4-0.2-0.4-0.4V9z M14,11.3c1.5,0,2.7,1.2,2.7,2.7s-1.2,2.7-2.7,2.7s-2.7-1.2-2.7-2.7S12.5,11.3,14,11.3z M8.6,12.9h1.3
		c-0.1,0.4-0.2,0.7-0.2,1.1c0,2.3,1.9,4.2,4.3,4.2c2.3,0,4.3-1.9,4.3-4.2c0-0.4-0.1-0.8-0.2-1.1h1.3V19c0,0.2-0.2,0.4-0.4,0.4H9
		c-0.2,0-0.4-0.2-0.4-0.4V12.9z"/>
</g>
</svg>
