<?xml version="1.0" encoding="utf-8"?>
<!-- Generator: Adobe Illustrator 19.1.0, SVG Export Plug-In . SVG Version: 6.00 Build 0)  -->
<svg version="1.1" id="Livello_1" xmlns="http://www.w3.org/2000/svg" xmlns:xlink="http://www.w3.org/1999/xlink" x="0px" y="0px"
	 width="28px" height="28px" viewBox="-260 237 28 28" enable-background="new -260 237 28 28" xml:space="preserve">
<g id="Layer_1">
</g>
<g id="Layer_2">
	<g id="New_Symbol_9">
	</g>
	<g id="New_Symbol_71">
		<g id="New_Symbol_8">
		</g>
		<g id="FOOTER_3_">
			<g id="New_Symbol_176_3_">
				<g id="New_Symbol_173_3_">
				</g>
			</g>
		</g>
		<g id="Side_bar_2_">
		</g>
		<g id="global_nav">
		</g>
		<g id="New_Symbol_77">
		</g>
	</g>
	<g id="Side_bar">
	</g>
	<g id="FOOTER_2_">
		<g id="New_Symbol_176_2_">
			<g id="New_Symbol_173_2_">
			</g>
		</g>
	</g>
	<g id="FOOTER_1_">
		<g id="New_Symbol_176_1_">
			<g id="New_Symbol_173_1_">
			</g>
		</g>
	</g>
	<g id="FOOTER">
		<g id="New_Symbol_176">
			<g id="New_Symbol_173">
			</g>
		</g>
	</g>
	<g id="Side_bar_1_">
	</g>
	<g id="global_nav_2_">
	</g>
	<g id="global_nav_1_">
	</g>
	<g id="Side_bar_3_">
	</g>
	<g id="Side_bar_4_">
	</g>
	<g id="Side_bar_5_">
	</g>
</g>
<rect x="-259" y="243" fill="#CC3232" width="27" height="16"/>
<g>
	<g>
		<polygon fill="#FCDC59" points="-253.941,250.503 -252.05,251.942 -252.759,249.687 -250.912,248.248 -253.232,248.248 
			-253.941,246.036 -254.649,248.248 -256.969,248.248 -255.122,249.687 -255.831,251.942 		"/>
		<polygon fill="#FCDC59" points="-246.208,251.871 -245.586,252.345 -245.82,251.603 -245.212,251.13 -245.975,251.13 
			-246.208,250.402 -246.441,251.13 -247.204,251.13 -246.597,251.603 -246.83,252.345 		"/>
		<polygon fill="#FCDC59" points="-248.595,254.067 -248.19,254.735 -248.135,253.96 -247.396,253.743 -248.106,253.463 
			-248.055,252.7 -248.539,253.291 -249.249,253.011 -248.858,253.675 -249.347,254.279 		"/>
		<polygon fill="#FCDC59" points="-245.98,248.526 -245.21,248.658 -245.759,248.108 -245.439,247.408 -246.116,247.76 
			-246.659,247.223 -246.529,247.976 -247.206,248.329 -246.448,248.468 -246.312,249.233 		"/>
		<polygon fill="#FCDC59" points="-248.09,246.238 -247.324,246.083 -248.035,245.769 -247.989,245 -248.493,245.573 
			-249.194,245.268 -248.801,245.924 -249.304,246.497 -248.548,246.353 -248.144,247.018 		"/>
	</g>
</g>
</svg>
