<?xml version="1.0" encoding="utf-8"?>
<!-- Generator: Adobe Illustrator 19.1.0, SVG Export Plug-In . SVG Version: 6.00 Build 0)  -->
<svg version="1.0" id="Livello_1" xmlns="http://www.w3.org/2000/svg" xmlns:xlink="http://www.w3.org/1999/xlink" x="0px" y="0px"
	 width="14px" height="14px" viewBox="0 0 14 14" enable-background="new 0 0 14 14" xml:space="preserve">
<g>
	<path fill="#007481" d="M0,0v14h14V0H0z"/>
	<g>
		<g id="CIRCLE_24_">
			<path fill="#FFFFFF" d="M5.507,8.491c-0.657-0.656-1.717-0.654-2.374,0c-0.653,0.655-0.657,1.715,0,2.374
				c0.657,0.654,1.721,0.654,2.374,0C6.164,10.209,6.164,9.146,5.507,8.491L5.507,8.491L5.507,8.491z"/>
		</g>
		<g id="CIRCLE_23_">
			<path fill="#FFFFFF" d="M10.867,3.137c-0.657-0.658-1.717-0.656-2.374,0c-0.657,0.655-0.657,1.713,0,2.372
				c0.653,0.654,1.717,0.654,2.374,0C11.524,4.853,11.52,3.792,10.867,3.137L10.867,3.137L10.867,3.137z"/>
		</g>
		<g id="CIRCLE_22_">
			<path fill="#FFFFFF" d="M8.493,8.491c-0.657,0.659-0.657,1.717,0,2.374c0.657,0.654,1.717,0.656,2.374,0
				c0.657-0.657,0.657-1.719,0-2.374C10.21,7.836,9.15,7.836,8.493,8.491L8.493,8.491L8.493,8.491z"/>
		</g>
		<g id="CIRCLE_21_">
			<path fill="#FFFFFF" d="M3.133,3.135c-0.657,0.659-0.657,1.717,0,2.374c0.657,0.654,1.717,0.656,2.374,0
				c0.657-0.655,0.657-1.717,0-2.374C4.85,2.48,3.791,2.48,3.133,3.135L3.133,3.135L3.133,3.135z"/>
		</g>
	</g>
</g>
</svg>
